HIERARCHY
ROOT joint_Root
{
	OFFSET 0.0 0.0 0.0
	CHANNELS 6 Xposition Yposition Zposition Zrotation Xrotation Yrotation 
	JOINT Hips
	{
		OFFSET 4.5925 91.4895 -427.239
		CHANNELS 6 Xposition Yposition Zposition Zrotation Xrotation Yrotation 
		JOINT Spine
		{
			OFFSET 15.7357 0.0 0.0
			CHANNELS 6 Xposition Yposition Zposition Zrotation Xrotation Yrotation 
			JOINT Chest
			{
				OFFSET 8.98455 -0.406207 0.0
				CHANNELS 6 Xposition Yposition Zposition Zrotation Xrotation Yrotation 
				JOINT Neck
				{
					OFFSET 16.3773 0.0 0.0
					CHANNELS 6 Xposition Yposition Zposition Zrotation Xrotation Yrotation 
					JOINT Head
					{
						OFFSET 6.45672 0.0 0.0
						CHANNELS 6 Xposition Yposition Zposition Zrotation Xrotation Yrotation 
						End Site
						{
							OFFSET 0.0 0.0 0.0
						}
					}
				}
				JOINT Shoulder_L
				{
					OFFSET 12.9942 -0.242716 4.98039
					CHANNELS 6 Xposition Yposition Zposition Zrotation Xrotation Yrotation 
					JOINT UpperArm_L
					{
						OFFSET 5.34809 0.0 0.0
						CHANNELS 6 Xposition Yposition Zposition Zrotation Xrotation Yrotation 
						JOINT LowerArm_L
						{
							OFFSET 24.3286 1.87007e-05 0.0
							CHANNELS 6 Xposition Yposition Zposition Zrotation Xrotation Yrotation 
							JOINT Hand_L
							{
								OFFSET 22.2916 0.0 0.0
								CHANNELS 6 Xposition Yposition Zposition Zrotation Xrotation Yrotation 
								End Site
								{
									OFFSET 0.0 0.0 0.0
								}
							}
						}
					}
				}
				JOINT Shoulder_R
				{
					OFFSET 12.9945 -0.242716 -4.98039
					CHANNELS 6 Xposition Yposition Zposition Zrotation Xrotation Yrotation 
					JOINT UpperArm_R
					{
						OFFSET -5.34813 0.0 0.0
						CHANNELS 6 Xposition Yposition Zposition Zrotation Xrotation Yrotation 
						JOINT LowerArm_R
						{
							OFFSET -24.3289 0.000322201 0.0
							CHANNELS 6 Xposition Yposition Zposition Zrotation Xrotation Yrotation 
							JOINT Hand_R
							{
								OFFSET -22.2915 -0.000108084 0.0
								CHANNELS 6 Xposition Yposition Zposition Zrotation Xrotation Yrotation 
								End Site
								{
									OFFSET 0.0 0.0 0.0
								}
							}
						}
					}
				}
			}
		}
		JOINT UpperLeg_L
		{
			OFFSET -2.19248 -6.46944 0.0
			CHANNELS 6 Xposition Yposition Zposition Zrotation Xrotation Yrotation 
			JOINT LowerLeg_L
			{
				OFFSET 39.0811 0.0 -1.23785e-05
				CHANNELS 6 Xposition Yposition Zposition Zrotation Xrotation Yrotation 
				JOINT Foot_L
				{
					OFFSET 40.9854 0.0 -1.26872e-05
					CHANNELS 6 Xposition Yposition Zposition Zrotation Xrotation Yrotation 
					JOINT Toes_L
					{
						OFFSET 11.7543 0.0 0.0
						CHANNELS 6 Xposition Yposition Zposition Zrotation Xrotation Yrotation 
						End Site
						{
							OFFSET 0.0 0.0 0.0
						}
					}
				}
			}
		}
		JOINT UpperLeg_R
		{
			OFFSET -2.19251 6.46944 0.0
			CHANNELS 6 Xposition Yposition Zposition Zrotation Xrotation Yrotation 
			JOINT LowerLeg_R
			{
				OFFSET -39.0811 -0.00228153 -0.0401928
				CHANNELS 6 Xposition Yposition Zposition Zrotation Xrotation Yrotation 
				JOINT Foot_R
				{
					OFFSET -40.9854 0.0 0.0
					CHANNELS 6 Xposition Yposition Zposition Zrotation Xrotation Yrotation 
					JOINT Toes_R
					{
						OFFSET -11.7543 0.0 0.0
						CHANNELS 6 Xposition Yposition Zposition Zrotation Xrotation Yrotation 
						End Site
						{
							OFFSET 0.0 0.0 0.0
						}
					}
				}
			}
		}
	}
}
MOTION
Frames:	6
Frame Time:	0.0333333
0.000000 0.000000 0.000000 0.000000 0.000000 -0.000000 -2.849220 90.389500 -1.144610 89.896900 -1.786120 11.745200 15.735700 0.000005 -0.000001 87.114900 78.559600 -87.233500 8.984550 -0.406207 -0.000000 15.086700 -1.143970 -0.085933 16.377300 -0.000001 -0.000001 4.529460 -4.235400 2.162980 6.456720 -0.000001 -0.000000 -7.094450 -3.503570 0.487086 12.994200 -0.242716 4.980390 -91.157600 5.783500 -78.661200 5.348090 -0.000007 -0.000001 -55.118700 42.409000 -28.673300 24.328600 0.000019 0.000005 6.926260 19.277800 -20.201000 22.291600 -0.000001 0.000005 10.657000 5.311380 -0.249034 12.994500 -0.242716 -4.980390 89.322500 10.674400 -86.346900 -5.348130 -0.000001 -0.000004 -61.895500 27.286100 -19.650400 -24.328900 0.000322 -0.000009 2.716840 6.835230 -21.745600 -22.291500 -0.000108 -0.000004 16.195100 5.407190 -3.172640 -2.192480 -6.469440 -0.000000 -174.136000 -10.704700 -0.580735 39.081100 -0.000007 -0.000012 -0.213838 0.329913 32.950200 40.985400 -0.000006 -0.000013 -0.572481 5.479810 -70.311700 11.754300 -0.000000 0.000003 -0.000126 -0.001256 -16.625500 -2.192510 6.469440 -0.000001 174.187000 21.643200 -179.300000 -39.081100 -0.002282 -0.040193 -0.220398 0.344661 32.984800 -40.985400 0.000008 0.000006 4.409110 11.768700 -71.652300 -11.754300 -0.000006 -0.000006 -0.003472 -0.045831 -18.437200
0.000000 0.000000 0.000000 0.000000 0.000000 -0.000000 -2.859870 90.384900 -1.172630 89.877500 -1.788570 11.787000 15.735700 0.000005 -0.000001 87.084900 78.528200 -87.218300 8.984550 -0.406207 -0.000000 15.148700 -1.159830 -0.112793 16.377300 -0.000001 -0.000001 4.498410 -4.274950 2.074110 6.456720 -0.000001 -0.000000 -7.141190 -3.567370 0.360942 12.994200 -0.242716 4.980390 -91.163000 5.796560 -78.634600 5.348090 -0.000007 -0.000001 -55.116500 42.328200 -28.642800 24.328600 0.000019 0.000005 6.936860 19.244000 -20.261100 22.291600 -0.000001 0.000005 10.559100 5.311020 -0.238891 12.994500 -0.242716 -4.980390 89.310800 10.708300 -86.295600 -5.348130 -0.000001 -0.000004 -62.287800 25.820200 -19.238000 -24.328900 0.000322 -0.000009 2.846070 6.697380 -23.095400 -22.291500 -0.000108 -0.000004 16.456400 5.410100 -3.268140 -2.192480 -6.469440 -0.000000 -174.099000 -10.688000 -0.581601 39.081100 -0.000007 -0.000012 -0.217633 0.335264 32.989500 40.985400 -0.000006 -0.000013 -0.579325 5.488660 -70.306900 11.754300 -0.000000 0.000003 -0.000119 -0.001196 -16.623300 -2.192510 6.469440 -0.000001 174.201000 21.674100 -179.289000 -39.081100 -0.002282 -0.040193 -0.216827 0.338858 33.008000 -40.985400 0.000008 0.000006 4.433220 11.792900 -71.646500 -11.754300 -0.000006 -0.000006 -0.003550 -0.046680 -18.471700
0.000000 0.000000 0.000000 0.000000 0.000000 -0.000000 -2.857360 90.387200 -1.206600 89.871000 -1.820110 11.817100 15.735700 0.000005 -0.000001 87.100300 78.502000 -87.254100 8.984550 -0.406207 -0.000000 15.201200 -1.157640 -0.153447 16.377300 -0.000001 -0.000001 4.478230 -4.324650 1.989810 6.456720 -0.000001 -0.000000 -7.182880 -3.596840 0.209259 12.994200 -0.242716 4.980390 -91.170400 5.823430 -78.615500 5.348090 -0.000007 -0.000001 -55.039700 42.349700 -28.671100 24.328600 0.000019 0.000005 6.925160 19.248500 -20.225200 22.291600 -0.000001 0.000005 10.717200 5.311880 -0.263481 12.994500 -0.242716 -4.980390 89.290100 10.734300 -86.193800 -5.348130 -0.000001 -0.000004 -62.593900 24.289100 -18.824800 -24.328900 0.000322 -0.000009 2.866350 6.184220 -24.938700 -22.291500 -0.000108 -0.000004 16.827200 5.414630 -3.418530 -2.192480 -6.469440 -0.000000 -174.082000 -10.722200 -0.570081 39.081100 -0.000007 -0.000012 -0.218390 0.336413 32.990900 40.985400 -0.000006 -0.000013 -0.577348 5.486170 -70.285900 11.754300 -0.000000 0.000003 -0.000131 -0.001298 -16.627100 -2.192510 6.469440 -0.000001 174.216000 21.633600 -179.281000 -39.081100 -0.002282 -0.040193 -0.220009 0.343831 33.002400 -40.985400 0.000008 0.000006 4.428470 11.762200 -71.621100 -11.754300 -0.000006 -0.000006 -0.003589 -0.047095 -18.488600
0.000000 0.000000 0.000000 0.000000 0.000000 -0.000000 -2.845180 90.379300 -1.245910 89.851000 -1.823440 11.852300 15.735700 0.000005 -0.000001 87.012200 78.472500 -87.182900 8.984550 -0.406207 -0.000000 15.258300 -1.196600 -0.181476 16.377300 -0.000001 -0.000001 4.478240 -4.363880 1.907620 6.456720 -0.000001 -0.000000 -7.232060 -3.610330 0.050227 12.994200 -0.242716 4.980390 -91.172100 5.829790 -78.611600 5.348090 -0.000007 -0.000001 -55.026300 42.327700 -28.649600 24.328600 0.000019 0.000005 6.908960 19.245300 -20.184200 22.291600 -0.000001 0.000005 10.776800 5.312430 -0.279126 12.994500 -0.242716 -4.980390 89.269500 10.726900 -86.080900 -5.348130 -0.000001 -0.000004 -62.789200 22.697300 -18.514600 -24.328900 0.000322 -0.000009 2.923990 5.715320 -27.162800 -22.291500 -0.000108 -0.000004 17.186000 5.419710 -3.588620 -2.192480 -6.469440 -0.000000 -174.076000 -10.719500 -0.594082 39.081100 -0.000007 -0.000012 -0.214766 0.329983 33.058100 40.985400 -0.000006 -0.000013 -0.563927 5.468310 -70.295900 11.754300 -0.000000 0.000003 -0.000128 -0.001271 -16.626000 -2.192510 6.469440 -0.000001 174.233000 21.611200 -179.298000 -39.081100 -0.002282 -0.040193 -0.216716 0.338203 33.045500 -40.985400 0.000008 0.000006 4.425290 11.752700 -71.611300 -11.754300 -0.000006 -0.000006 -0.003512 -0.046264 -18.454800
0.000000 0.000000 0.000000 0.000000 0.000000 -0.000000 -2.829540 90.381100 -1.278120 89.849000 -1.853480 11.943100 15.735700 0.000005 -0.000001 86.945500 78.415100 -87.139800 8.984550 -0.406207 -0.000000 15.371300 -1.230580 -0.223006 16.377300 -0.000001 -0.000001 4.459700 -4.383530 1.806500 6.456720 -0.000001 -0.000000 -7.302280 -3.613880 -0.128230 12.994200 -0.242716 4.980390 -91.180500 5.864290 -78.597100 5.348090 -0.000007 -0.000001 -55.023000 42.225600 -28.603100 24.328600 0.000019 0.000005 6.974330 19.393300 -20.224000 22.291600 -0.000001 0.000005 10.616400 5.309430 -0.193749 12.994500 -0.242716 -4.980390 89.244300 10.703200 -85.937600 -5.348130 -0.000001 -0.000004 -62.835400 21.104200 -18.346300 -24.328900 0.000322 -0.000009 3.268790 5.735750 -29.755100 -22.291500 -0.000108 -0.000004 17.646800 5.422120 -3.670710 -2.192480 -6.469440 -0.000000 -174.062000 -10.714000 -0.514431 39.081100 -0.000007 -0.000012 -0.218306 0.335470 33.054300 40.985400 -0.000006 -0.000013 -0.565016 5.447210 -70.279800 11.754300 -0.000000 0.000003 -0.000129 -0.001279 -16.626400 -2.192510 6.469440 -0.000001 174.201000 21.597900 -179.234000 -39.081100 -0.002282 -0.040193 -0.218988 0.341666 33.047700 -40.985400 0.000008 0.000006 4.425050 11.764100 -71.581800 -11.754300 -0.000006 -0.000006 -0.003360 -0.044611 -18.387500
0.000000 0.000000 0.000000 0.000000 0.000000 -0.000000 -2.806320 90.373800 -1.319680 89.821400 -1.923300 11.967700 15.735700 0.000005 -0.000001 86.933900 78.386100 -87.147500 8.984550 -0.406207 -0.000000 15.428800 -1.239490 -0.259611 16.377300 -0.000001 -0.000001 4.427480 -4.414330 1.711650 6.456720 -0.000001 -0.000000 -7.330790 -3.598180 -0.328030 12.994200 -0.242716 4.980390 -91.190200 5.907640 -78.587800 5.348090 -0.000007 -0.000001 -54.953800 42.212600 -28.582100 24.328600 0.000019 0.000005 6.990940 19.451200 -20.215400 22.291600 -0.000001 0.000005 10.636400 5.308950 -0.180000 12.994500 -0.242716 -4.980390 89.209100 10.658500 -85.731300 -5.348130 -0.000001 -0.000004 -62.763100 19.620800 -18.341300 -24.328900 0.000322 -0.000009 3.829230 6.035400 -32.486300 -22.291500 -0.000108 -0.000004 18.254300 5.422220 -3.674560 -2.192480 -6.469440 -0.000000 -174.047000 -10.760900 -0.546596 39.081100 -0.000007 -0.000012 -0.214448 0.328642 33.125900 40.985400 -0.000006 -0.000013 -0.541304 5.431180 -70.293400 11.754300 -0.000000 0.000003 -0.000134 -0.001316 -16.627700 -2.192510 6.469440 -0.000001 174.238000 21.518000 -179.276000 -39.081100 -0.002282 -0.040193 -0.218720 0.340725 33.088400 -40.985400 0.000008 0.000006 4.412690 11.749000 -71.559100 -11.754300 -0.000006 -0.000006 -0.003442 -0.045506 -18.423900
